<?xml version="1.0" encoding="UTF-8"?>
<svg xmlns="http://www.w3.org/2000/svg" width="600" height="600" viewBox="0 0 600 600"><rect width="600" height="600" fill="white" /><g><polygon points="300.0,50.0 495.4578706170074,144.12754953531663 543.7319780454559,355.6302334890786 408.47093477938955,525.2422169756048 191.52906522061048,525.2422169756048 56.26802195454408,355.63023348907865 104.54212938299253,144.12754953531666" fill="none" stroke="black" stroke-width="8.0" stroke-linecap="round" stroke-linejoin="round" /><polygon points="351.76380902050414,106.81483474218635 483.3124511739952,220.02159513605181 476.82307870092194,393.4537256546124 337.18232143258297,496.51329464665764 169.54251774437577,451.5943446290906 100.1398590423203,292.52176114473485 181.2359628852996,139.0804440466664" fill="none" stroke="black" stroke-width="8.0" stroke-linecap="round" stroke-linejoin="round" /><polygon points="380.0,161.43593539448977 458.2129321960206,276.1532374118121 417.28829949277224,408.8276380433471 288.0431850261721,459.5526075489888 167.8017961094408,390.1312092901796 147.10835107421744,252.83917209425536 241.54543610137682,151.06020021692729" fill="none" stroke="black" stroke-width="8.0" stroke-linecap="round" stroke-linejoin="round" /><polygon points="390.50966799187813,209.49033200812192 427.19516286633507,314.3314529412234 368.1001057939631,408.3806975012204 257.7242800697386,420.8170662794711 179.18293372052892,342.2757199302614 191.61930249877958,231.89989420603692 285.66854705877654,172.80483713366493" fill="none" stroke="black" stroke-width="8.0" stroke-linecap="round" stroke-linejoin="round" /><polygon points="388.68100134752655,248.79999999999998 395.3214718611665,337.41092089511886 330.1829298596766,397.8506553125008 242.31602605428512,384.60685048995794 197.88633116864713,307.6523615832499 230.3503116522578,224.9354883246258 315.26192805644024,198.7437233945468" fill="none" stroke="black" stroke-width="8.0" stroke-linecap="round" stroke-linejoin="round" /><polygon points="379.1286436896005,278.7975438252015 365.9126501184855,348.64574960218124 303.0630866351166,381.8627137362656 237.90695643992447,353.4353847319037 219.50815451272902,284.770121141214 261.72135397187077,227.57326696410234 332.7591546322732,224.91521999913152" fill="none" stroke="black" stroke-width="8.0" stroke-linecap="round" stroke-linejoin="round" /><polygon points="365.53600000000006,300.0 340.86102765461396,351.2381080350248 285.41686807223897,363.89287565274805 240.95410427314704,328.4350047268083 240.95410427314704,271.5649952731917 285.41686807223897,236.10712434725198 340.86102765461396,248.76189196497518" fill="none" stroke="black" stroke-width="8.0" stroke-linecap="round" stroke-linejoin="round" /><line x1="300.0" y1="50.0" x2="351.76380902050414" y2="106.81483474218635" stroke="gray" stroke-width="8.0" stroke-linecap="round" /><line x1="495.4578706170074" y1="144.12754953531663" x2="483.3124511739952" y2="220.02159513605181" stroke="gray" stroke-width="8.0" stroke-linecap="round" /><line x1="543.7319780454559" y1="355.6302334890786" x2="476.82307870092194" y2="393.4537256546124" stroke="gray" stroke-width="8.0" stroke-linecap="round" /><line x1="408.47093477938955" y1="525.2422169756048" x2="337.18232143258297" y2="496.51329464665764" stroke="gray" stroke-width="8.0" stroke-linecap="round" /><line x1="191.52906522061048" y1="525.2422169756048" x2="169.54251774437577" y2="451.5943446290906" stroke="gray" stroke-width="8.0" stroke-linecap="round" /><line x1="56.26802195454408" y1="355.63023348907865" x2="100.1398590423203" y2="292.52176114473485" stroke="gray" stroke-width="8.0" stroke-linecap="round" /><line x1="104.54212938299253" y1="144.12754953531666" x2="181.2359628852996" y2="139.0804440466664" stroke="gray" stroke-width="8.0" stroke-linecap="round" /><line x1="351.76380902050414" y1="106.81483474218635" x2="380.0" y2="161.43593539448977" stroke="gray" stroke-width="8.0" stroke-linecap="round" /><line x1="483.3124511739952" y1="220.02159513605181" x2="458.2129321960206" y2="276.1532374118121" stroke="gray" stroke-width="8.0" stroke-linecap="round" /><line x1="476.82307870092194" y1="393.4537256546124" x2="417.28829949277224" y2="408.8276380433471" stroke="gray" stroke-width="8.0" stroke-linecap="round" /><line x1="337.18232143258297" y1="496.51329464665764" x2="288.0431850261721" y2="459.5526075489888" stroke="gray" stroke-width="8.0" stroke-linecap="round" /><line x1="169.54251774437577" y1="451.5943446290906" x2="167.8017961094408" y2="390.1312092901796" stroke="gray" stroke-width="8.0" stroke-linecap="round" /><line x1="100.1398590423203" y1="292.52176114473485" x2="147.10835107421744" y2="252.83917209425536" stroke="gray" stroke-width="8.0" stroke-linecap="round" /><line x1="181.2359628852996" y1="139.0804440466664" x2="241.54543610137682" y2="151.06020021692729" stroke="gray" stroke-width="8.0" stroke-linecap="round" /><line x1="380.0" y1="161.43593539448977" x2="390.50966799187813" y2="209.49033200812192" stroke="gray" stroke-width="8.0" stroke-linecap="round" /><line x1="458.2129321960206" y1="276.1532374118121" x2="427.19516286633507" y2="314.3314529412234" stroke="gray" stroke-width="8.0" stroke-linecap="round" /><line x1="417.28829949277224" y1="408.8276380433471" x2="368.1001057939631" y2="408.3806975012204" stroke="gray" stroke-width="8.0" stroke-linecap="round" /><line x1="288.0431850261721" y1="459.5526075489888" x2="257.7242800697386" y2="420.8170662794711" stroke="gray" stroke-width="8.0" stroke-linecap="round" /><line x1="167.8017961094408" y1="390.1312092901796" x2="179.18293372052892" y2="342.2757199302614" stroke="gray" stroke-width="8.0" stroke-linecap="round" /><line x1="147.10835107421744" y1="252.83917209425536" x2="191.61930249877958" y2="231.89989420603692" stroke="gray" stroke-width="8.0" stroke-linecap="round" /><line x1="241.54543610137682" y1="151.06020021692729" x2="285.66854705877654" y2="172.80483713366493" stroke="gray" stroke-width="8.0" stroke-linecap="round" /><line x1="390.50966799187813" y1="209.49033200812192" x2="388.68100134752655" y2="248.79999999999998" stroke="gray" stroke-width="8.0" stroke-linecap="round" /><line x1="427.19516286633507" y1="314.3314529412234" x2="395.3214718611665" y2="337.41092089511886" stroke="gray" stroke-width="8.0" stroke-linecap="round" /><line x1="368.1001057939631" y1="408.3806975012204" x2="330.1829298596766" y2="397.8506553125008" stroke="gray" stroke-width="8.0" stroke-linecap="round" /><line x1="257.7242800697386" y1="420.8170662794711" x2="242.31602605428512" y2="384.60685048995794" stroke="gray" stroke-width="8.0" stroke-linecap="round" /><line x1="179.18293372052892" y1="342.2757199302614" x2="197.88633116864713" y2="307.6523615832499" stroke="gray" stroke-width="8.0" stroke-linecap="round" /><line x1="191.61930249877958" y1="231.89989420603692" x2="230.3503116522578" y2="224.9354883246258" stroke="gray" stroke-width="8.0" stroke-linecap="round" /><line x1="285.66854705877654" y1="172.80483713366493" x2="315.26192805644024" y2="198.7437233945468" stroke="gray" stroke-width="8.0" stroke-linecap="round" /><line x1="388.68100134752655" y1="248.79999999999998" x2="379.1286436896005" y2="278.7975438252015" stroke="gray" stroke-width="8.0" stroke-linecap="round" /><line x1="395.3214718611665" y1="337.41092089511886" x2="365.9126501184855" y2="348.64574960218124" stroke="gray" stroke-width="8.0" stroke-linecap="round" /><line x1="330.1829298596766" y1="397.8506553125008" x2="303.0630866351166" y2="381.8627137362656" stroke="gray" stroke-width="8.0" stroke-linecap="round" /><line x1="242.31602605428512" y1="384.60685048995794" x2="237.90695643992447" y2="353.4353847319037" stroke="gray" stroke-width="8.0" stroke-linecap="round" /><line x1="197.88633116864713" y1="307.6523615832499" x2="219.50815451272902" y2="284.770121141214" stroke="gray" stroke-width="8.0" stroke-linecap="round" /><line x1="230.3503116522578" y1="224.9354883246258" x2="261.72135397187077" y2="227.57326696410234" stroke="gray" stroke-width="8.0" stroke-linecap="round" /><line x1="315.26192805644024" y1="198.7437233945468" x2="332.7591546322732" y2="224.91521999913152" stroke="gray" stroke-width="8.0" stroke-linecap="round" /><line x1="379.1286436896005" y1="278.7975438252015" x2="365.53600000000006" y2="300.0" stroke="gray" stroke-width="8.0" stroke-linecap="round" /><line x1="365.9126501184855" y1="348.64574960218124" x2="340.86102765461396" y2="351.2381080350248" stroke="gray" stroke-width="8.0" stroke-linecap="round" /><line x1="303.0630866351166" y1="381.8627137362656" x2="285.41686807223897" y2="363.89287565274805" stroke="gray" stroke-width="8.0" stroke-linecap="round" /><line x1="237.90695643992447" y1="353.4353847319037" x2="240.95410427314704" y2="328.4350047268083" stroke="gray" stroke-width="8.0" stroke-linecap="round" /><line x1="219.50815451272902" y1="284.770121141214" x2="240.95410427314704" y2="271.5649952731917" stroke="gray" stroke-width="8.0" stroke-linecap="round" /><line x1="261.72135397187077" y1="227.57326696410234" x2="285.41686807223897" y2="236.10712434725198" stroke="gray" stroke-width="8.0" stroke-linecap="round" /><line x1="332.7591546322732" y1="224.91521999913152" x2="340.86102765461396" y2="248.76189196497518" stroke="gray" stroke-width="8.0" stroke-linecap="round" /></g></svg>